<?xml version="1.0" encoding="UTF-8"?>
<svg id="Layer_2" data-name="Layer 2" xmlns="http://www.w3.org/2000/svg" xmlns:xlink="http://www.w3.org/1999/xlink" viewBox="0 0 628.5 529.15">
  <defs>
    <style>
      .cls-1 {
        fill: url(#linear-gradient);
        opacity: .52;
      }

      .cls-1, .cls-2, .cls-3, .cls-4, .cls-5, .cls-6, .cls-7, .cls-8, .cls-9, .cls-10 {
        isolation: isolate;
      }

      .cls-11 {
        fill: #f7fafc;
      }

      .cls-12 {
        fill: #e58e1a;
      }

      .cls-13, .cls-9 {
        fill: #e58220;
      }

      .cls-14 {
        fill: #ea754b;
      }

      .cls-15, .cls-2, .cls-7 {
        fill: #fff;
      }

      .cls-16 {
        fill: #ffb999;
      }

      .cls-17 {
        fill: #ffc871;
      }

      .cls-18 {
        fill: #fcac38;
      }

      .cls-19 {
        fill: #fcd32e;
      }

      .cls-20 {
        fill: #fbe481;
      }

      .cls-21 {
        fill: #fc8383;
      }

      .cls-22 {
        fill: #e2ecff;
      }

      .cls-23, .cls-8 {
        fill: #fea42f;
      }

      .cls-24 {
        fill: #fbd947;
      }

      .cls-25 {
        fill: #977af3;
      }

      .cls-26 {
        fill: #90eae9;
      }

      .cls-27 {
        fill: #a32e2e;
      }

      .cls-28 {
        fill: #83ce00;
      }

      .cls-29 {
        fill: #90b7f4;
      }

      .cls-30 {
        fill: #ade701;
      }

      .cls-31 {
        fill: #cc740a;
      }

      .cls-32 {
        fill: #c64f4f;
      }

      .cls-33 {
        fill: #c5d9f9;
      }

      .cls-34, .cls-5 {
        fill: #5abfbc;
      }

      .cls-35 {
        fill: #392f2f;
      }

      .cls-36 {
        fill: #7a61e5;
      }

      .cls-37 {
        fill: #78ad04;
      }

      .cls-2 {
        opacity: .7;
      }

      .cls-3 {
        fill: #d85c36;
        opacity: .49;
      }

      .cls-4 {
        opacity: .56;
      }

      .cls-4, .cls-6 {
        fill: #f99269;
      }

      .cls-5 {
        opacity: .48;
      }

      .cls-6 {
        opacity: .86;
      }

      .cls-7 {
        opacity: .67;
      }

      .cls-8 {
        opacity: .53;
      }

      .cls-9 {
        opacity: .45;
      }

      .cls-10 {
        fill: #f8a547;
        opacity: .4;
      }

      .cls-38 {
        opacity: .2;
      }
    </style>
    <linearGradient id="linear-gradient" x1="318.68" y1="810.08" x2="318.68" y2="515.13" gradientTransform="translate(0 928.28) scale(1 -1)" gradientUnits="userSpaceOnUse">
      <stop offset="0" stop-color="#f7fafc" stop-opacity=".5"/>
      <stop offset=".16" stop-color="#ecf3fd" stop-opacity=".61"/>
      <stop offset=".42" stop-color="#dce9fe" stop-opacity=".78"/>
      <stop offset=".66" stop-color="#d1e1fe" stop-opacity=".9"/>
      <stop offset=".86" stop-color="#caddff" stop-opacity=".97"/>
      <stop offset=".99" stop-color="#c7dbff"/>
    </linearGradient>
  </defs>
  <g id="Layer_1-2" data-name="Layer 1">
    <g id="Layer_2-2" data-name="Layer 2">
      <g id="Layer_3" data-name="Layer 3">
        <rect class="cls-1" x="39.19" y="97.88" width="558.98" height="345.75" rx="37.7" ry="37.7"/>
        <path class="cls-11" d="M324.37,392.31H84.93c-3.87,0-7-3.13-7-7s3.13-7,7-7h239.44c3.87,0,7,3.13,7,7s-3.13,7-7,7Z"/>
        <path class="cls-11" d="M196.75,358.43H84.93c-3.87,0-7-3.13-7-7s3.13-7,7-7h111.82c3.87,0,7,3.13,7,7s-3.13,7-7,7h0Z"/>
        <path class="cls-11" d="M196.75,324.55H84.93c-3.87,0-7-3.13-7-7s3.13-7,7-7h111.82c3.87,0,7,3.13,7,7s-3.13,7-7,7h0Z"/>
        <path class="cls-11" d="M196.75,256.78H84.93c-3.87,0-7-3.13-7-7s3.13-7,7-7h111.82c3.87,0,7,3.13,7,7s-3.13,7-7,7h0Z"/>
        <path class="cls-11" d="M262.25,290.67H84.93c-3.87,0-7-3.13-7-7s3.13-7,7-7h177.32c3.87,0,7,3.13,7,7s-3.13,7-7,7Z"/>
        <circle class="cls-15" cx="117.97" cy="187.95" r="33.04" transform="translate(-77.87 292.3) rotate(-85.93)"/>
        <path class="cls-37" d="M439.75,396.92c1.07,1.77,3.67,1.57,5.28,2.86,3.68,2.95,8,4.53,17.36,4.1-.62,2.44-2.78,4.17-5,5.41-7.36,4.11-16.15,4.8-24.07,1.91"/>
        <path class="cls-28" d="M437.66,395.76c.19,2.81,3.48,4.2,4.63,6.78,2.63,5.88,6.94,10.53,18.53,15.84-2.28,2.58-6,3.33-9.43,3.46-11.52,.38-22.63-4.27-30.45-12.74"/>
        <path class="cls-37" d="M384.41,482.38c1.07,1.77,3.67,1.57,5.28,2.86,3.68,2.95,8,4.53,17.36,4.09-.62,2.45-2.78,4.18-5,5.42-7.36,4.1-16.14,4.8-24.05,1.91"/>
        <path class="cls-28" d="M382.32,481.22c.19,2.81,3.48,4.2,4.63,6.77,2.63,5.89,6.94,10.54,18.53,15.85-2.28,2.58-6,3.33-9.43,3.46-11.52,.38-22.63-4.27-30.45-12.74"/>
        <path class="cls-37" d="M420.59,403.81c-2-.4-2.72-2.91-4.48-4-4-2.45-7-6-9.76-14.92-2.09,1.41-3,4-3.4,6.52-1.35,8.32,.98,16.82,6.4,23.28"/>
        <path class="cls-28" d="M422.4,405.38c-2.71,.78-5.14-1.84-7.95-2-6.43-.47-12.27-2.94-21.2-12-1.66,3-1.1,6.77-.05,10.05,3.56,10.96,11.72,19.83,22.35,24.29"/>
        <path class="cls-37" d="M395.75,428.66c-2-.4-2.73-2.92-4.49-4-4-2.46-7-6-9.76-14.92-2.09,1.41-3,4-3.4,6.51-1.35,8.32,.99,16.82,6.4,23.29"/>
        <path class="cls-28" d="M397.55,430.23c-2.71,.78-5.14-1.84-7.95-2.05-6.42-.46-12.26-2.93-21.2-12-1.66,3-1.09,6.77,0,10.05,3.57,10.96,11.73,19.82,22.36,24.28"/>
        <path class="cls-37" d="M364.12,471.2c-2-.4-2.72-2.92-4.48-4-4-2.45-7-6-9.76-14.92-2.09,1.41-3,4-3.4,6.52-1.35,8.32,.98,16.82,6.4,23.28"/>
        <path class="cls-28" d="M365.93,472.77c-2.71,.78-5.14-1.84-7.95-2-6.43-.46-12.27-2.93-21.21-12-1.65,3-1.09,6.77,0,10.05,3.57,10.96,11.73,19.82,22.35,24.29"/>
        <path class="cls-30" d="M394.14,408.33c6.82,18.28,23.49,28.76,39,34.73,9.36-16.44,19.06-36.05,21.08-55,.72-6.73,2.25-17.65-4.42-18.8-3.36-.57-9.61,3.26-12.49,5.08-15.5,9.84-29.97,21.23-43.17,33.99Z"/>
        <path class="cls-28" d="M363.64,443.09h0c9.4,18.92,29.89,28.49,46.19,33.26,4.91-5.91,9.59-12,13.94-18.35,3.34-4.88,6.49-9.86,9.38-14.95-15.52-6-32.19-16.45-39-34.73-11.12,10.72-21.33,22.35-30.51,34.77Z"/>
        <path class="cls-30" d="M326.7,513.99l47.48,.14c12.37-12.11,24.61-24.47,35.65-37.77-16.3-4.77-36.83-14.37-46.19-33.26-16.04,21.49-28.52,45.43-36.94,70.89Z"/>
        <path class="cls-37" d="M344.7,514.72c-.11,0-.21-.03-.3-.1-.22-.17-.27-.48-.1-.7h0l101.7-134.12c.17-.22,.48-.26,.7-.1,.22,.17,.26,.48,.09,.7l-101.69,134.12c-.1,.12-.24,.2-.4,.2Z"/>
        <path class="cls-37" d="M433.18,426.27c-6.52-.09-13-1.2-19.18-3.28-.26-.1-.39-.39-.29-.64,.1-.26,.39-.39,.64-.3,7.11,2.39,14.61,3.44,22.1,3.08,.26-.03,.5,.16,.53,.43,0,.01,0,.02,0,.03,.02,.27-.18,.51-.45,.53,0,0,0,0-.01,0-1.14,.12-2.25,.15-3.34,.15Z"/>
        <path class="cls-37" d="M411,426.54c-.12,0-.24-.04-.33-.13-4.16-3.89-7.55-8.53-10-13.67-.11-.25,0-.55,.26-.66s.55,0,.66,.26c2.39,5.01,5.7,9.53,9.76,13.32,.21,.18,.23,.5,.06,.7-.1,.11-.24,.18-.39,.18h-.02Z"/>
        <path class="cls-37" d="M395.81,446.18c-.13,0-.25-.04-.35-.13-4.03-4.03-7.27-8.78-9.55-14-.1-.25,.02-.54,.27-.65,.25-.11,.54,.01,.64,.26,0,0,0,.01,0,.02,2.23,5.09,5.39,9.71,9.32,13.64,.2,.19,.2,.51,.01,.71-.09,.1-.22,.15-.35,.15Z"/>
        <path class="cls-37" d="M371.83,477.89c-.16,0-.3-.07-.39-.2-3.38-4.59-5.86-9.77-7.31-15.28-.07-.28,.1-.55,.38-.62s.55,.1,.62,.38c1.42,5.37,3.84,10.43,7.13,14.91,.17,.23,.12,.55-.11,.71-.08,.06-.18,.1-.29,.1h-.03Z"/>
        <path class="cls-37" d="M388,487.26c-6.53-.09-13-1.19-19.19-3.27-.26-.1-.39-.39-.3-.65,.09-.25,.37-.39,.63-.29,0,0,0,0,.01,0,7.11,2.39,14.61,3.43,22.1,3.07,.28-.02,.52,.19,.54,.46s-.19,.52-.46,.54c-1.11,.1-2.23,.14-3.32,.14Z"/>
        <path class="cls-37" d="M400.7,460.32h-.06c-4.3-.51-8.54-1.47-12.64-2.85-.26-.1-.39-.39-.3-.65,.1-.26,.38-.38,.64-.29,4.03,1.36,8.18,2.29,12.4,2.79,.27,.04,.47,.28,.44,.56-.03,.25-.23,.43-.48,.44Z"/>
        <path class="cls-37" d="M442.2,405.54h-.06c-4.3-.51-8.53-1.46-12.63-2.85-.25-.09-.39-.37-.29-.63,0,0,0,0,0-.01,.09-.26,.38-.39,.64-.3,4.03,1.36,8.18,2.3,12.4,2.8,.28,.02,.49,.25,.47,.53s-.25,.49-.53,.47h0Z"/>
        <path class="cls-37" d="M415.1,441.4h-.1c-4.3-.51-8.53-1.46-12.63-2.85-.26-.1-.38-.39-.28-.65,.1-.25,.37-.37,.62-.29,4.03,1.36,8.18,2.3,12.4,2.8,.28,0,.5,.22,.5,.5s-.22,.5-.5,.5h0Z"/>
        <path class="cls-37" d="M422,411.99c-.14,0-.27-.06-.36-.16-1.74-1.89-3.34-3.89-4.8-6-.15-.23-.1-.54,.13-.7,.23-.15,.53-.09,.69,.13,1.43,2.08,3.01,4.06,4.71,5.92,.2,.19,.2,.51,0,.71,0,0,0,0,0,0-.11,.08-.24,.11-.37,.1Z"/>
        <path class="cls-37" d="M359.25,494.87c-.14,0-.27-.06-.36-.16-1.74-1.89-3.34-3.89-4.8-6-.17-.22-.13-.53,.09-.7,.22-.17,.53-.13,.7,.09,.01,.01,.02,.03,.03,.04,1.43,2.08,3,4.06,4.7,5.92,.2,.19,.2,.51,0,.71,0,0,0,0,0,0-.1,.08-.23,.12-.36,.1Z"/>
        <path class="cls-37" d="M342.33,490.82c-2.85,3-5.51,6.33-7,10.28-1.62,4.35-1.62,9.11-1.29,13.68,.06,1,1.57,1,1.5,0-.31-4.36-.34-8.86,1.14-13,1.36-3.81,4-7,6.68-9.87,.66-.71-.4-1.77-1.06-1.06l.03-.03Z"/>
        <path class="cls-37" d="M147.19,410.99c-1.18,1-2.94,.17-4.38,.66-3.29,1.12-6.7,1.12-13.05-1.51-.19,1.85,.88,3.59,2.09,5,4.08,4.68,9.99,7.37,16.2,7.35"/>
        <path class="cls-28" d="M148.92,410.67c-.83,1.9-3.46,2.05-4.9,3.54-3.29,3.42-7.44,5.57-16.8,6.34,.93,2.37,3.31,3.81,5.66,4.77,7.89,3.14,16.76,2.7,24.29-1.22"/>
        <path class="cls-37" d="M164.14,483.99c-1.17,1-2.93,.17-4.37,.66-3.29,1.12-6.7,1.12-13.05-1.51-.19,1.85,.88,3.59,2.09,5,4.07,4.69,9.99,7.37,16.2,7.35"/>
        <path class="cls-28" d="M165.88,483.75c-.83,1.9-3.46,2-4.9,3.54-3.29,3.42-7.44,5.56-16.8,6.34,.93,2.36,3.31,3.8,5.66,4.76,7.89,3.15,16.75,2.7,24.29-1.21"/>
        <path class="cls-37" d="M158.74,420.53c1.5,.23,2.62-1.34,4.1-1.64,3.41-.7,6.36-2.42,10.5-7.9,1.1,1.5,1.06,3.54,.73,5.37-1.15,6.1-4.89,11.41-10.26,14.53"/>
        <path class="cls-28" d="M157.09,421.16c1.68,1.22,4,0,6,.58,4.57,1.28,9.24,1,17.71-3,.39,2.51-.94,5-2.49,7-5.21,6.7-13.08,10.8-21.56,11.23"/>
        <path class="cls-37" d="M169.74,443.99c1.5,.23,2.62-1.34,4.1-1.65,3.41-.69,6.36-2.42,10.5-7.89,1.1,1.5,1.06,3.54,.72,5.36-1.14,6.11-4.89,11.42-10.26,14.54"/>
        <path class="cls-28" d="M168.09,444.6c1.68,1.22,4,0,6,.57,4.57,1.29,9.24,1,17.71-3,.39,2.51-.94,5-2.49,7-5.21,6.71-13.09,10.81-21.57,11.24"/>
        <path class="cls-37" d="M181,481.36c1.5,.23,2.62-1.34,4.11-1.64,3.4-.69,6.35-2.42,10.5-7.9,1.09,1.5,1,3.54,.72,5.37-1.15,6.1-4.89,11.41-10.26,14.53"/>
        <path class="cls-28" d="M179.36,481.99c1.68,1.21,4,0,6,.57,4.57,1.29,9.23,1,17.7-3,.39,2.5-.93,5-2.48,7-5.23,6.69-13.1,10.77-21.58,11.2"/>
        <path class="cls-30" d="M175.94,430.28c-9.3,11-23.48,14-35.73,14.3-2.37-13.73-4.18-29.75-.83-43.42,1.19-4.84,2.86-12.79,7.77-11.92,2.47,.45,5.84,4.67,7.38,6.65,8.28,10.71,15.46,22.23,21.41,34.39Z"/>
        <path class="cls-28" d="M188.37,461.99h0c-11.25,10.76-27.84,12.26-40.33,11.49-1.93-5.33-3.64-10.73-5.07-16.21-1.09-4.22-2-8.46-2.76-12.71,12.25-.25,26.43-3.34,35.73-14.3,5.02,10.21,9.18,20.82,12.43,31.73Z"/>
        <path class="cls-30" d="M196.23,520.38l-32.94-11.79c-5.7-11.43-10.8-23.14-15.29-35.09,12.49,.77,29.08-.73,40.33-11.49,5.76,18.9,8.42,38.61,7.9,58.37Z"/>
        <path class="cls-37" d="M183.7,516.4c-.16,0-.31-.1-.36-.26l-36.86-118.38c-.06-.19,.04-.39,.23-.46,0,0,0,0,.01,0,.19-.06,.4,.05,.46,.24l36.87,118.39c.06,.2-.05,.4-.25,.46,0,0,0,0,0,0h-.1Z"/>
        <path class="cls-37" d="M158.5,435.49c-5.63-.13-11.19-1.32-16.38-3.5-.18-.09-.27-.3-.18-.49,.08-.18,.29-.26,.48-.18,0,0,0,0,0,0,5.1,2.12,10.56,3.27,16.08,3.4,.2,0,.37,.16,.38,.36h0c0,.2-.17,.37-.37,.37v.04Z"/>
        <path class="cls-37" d="M159.82,438.7c-.2,0-.36-.18-.35-.38,0-.14,.09-.27,.22-.33,3.76-1.61,7.19-3.91,10.1-6.79,.12-.16,.36-.19,.52-.07,.16,.12,.19,.36,.07,.52-.02,.02-.04,.04-.06,.06-2.99,2.96-6.5,5.33-10.36,7h-.14Z"/>
        <path class="cls-37" d="M165.43,456.12c-.15,0-.27-.1-.33-.23-.08-.17-.01-.38,.16-.47,0,0,.02,0,.03-.01,3.71-1.74,7.05-4.15,9.87-7.12,.14-.15,.37-.16,.51-.02,.15,.14,.16,.37,.02,.51-2.89,3.04-6.32,5.52-10.12,7.31l-.15,.03Z"/>
        <path class="cls-37" d="M174.11,484.09c-.13,0-.24-.06-.31-.17-.11-.17-.06-.39,.1-.5,0,0,.01,0,.02-.01,3.39-2.29,6.33-5.19,8.66-8.55,.12-.17,.35-.21,.52-.1,.17,.11,.21,.34,.1,.51-2.39,3.45-5.41,6.42-8.89,8.76-.06,.04-.13,.06-.2,.06Z"/>
        <path class="cls-37" d="M174.54,489.06c-5.63-.12-11.18-1.29-16.38-3.46-.18-.09-.27-.3-.18-.49,.08-.18,.29-.26,.48-.18,0,0,0,0,0,0,5.1,2.13,10.56,3.28,16.09,3.4,.19-.01,.36,.14,.37,.33,0,.01,0,.02,0,.03,0,.2-.17,.37-.37,.37h0Z"/>
        <path class="cls-37" d="M167.87,465.86c-3.18-.07-6.35-.46-9.45-1.18-.2-.05-.32-.25-.26-.45,.05-.19,.24-.31,.43-.27,3.05,.72,6.16,1.11,9.29,1.17,.2,0,.36,.16,.37,.36,.01,.19-.14,.36-.33,.37-.01,0-.02,0-.03,0h-.02Z"/>
        <path class="cls-37" d="M152.82,417.52c-3.18-.07-6.35-.47-9.45-1.19-.19-.04-.31-.22-.28-.41,0-.01,0-.02,0-.03,.04-.2,.24-.32,.44-.28,3.05,.72,6.16,1.12,9.29,1.17,.2,0,.37,.17,.37,.37,0,.2-.17,.37-.37,.37h0Z"/>
        <path class="cls-37" d="M162.63,449.15c-3.18-.07-6.35-.46-9.45-1.18-.2-.05-.32-.25-.28-.45,.05-.2,.25-.31,.45-.27,3.05,.72,6.16,1.11,9.29,1.16,.2,0,.36,.15,.37,.35,0,0,0,.01,0,.02,0,.2-.17,.37-.37,.37h0Z"/>
        <path class="cls-37" d="M155.83,425.87c-.2,0-.37-.17-.36-.38,0-.14,.08-.26,.2-.32,1.64-.87,3.23-1.85,4.74-2.93,.18-.09,.4-.02,.5,.16,.07,.15,.04,.32-.08,.44-1.54,1.12-3.16,2.12-4.84,3-.05,.03-.1,.04-.16,.03Z"/>
        <path class="cls-37" d="M178.58,498.99c-.14,0-.27-.09-.33-.21-.09-.18-.02-.39,.16-.48,0,0,0,0,.01,0,1.64-.87,3.23-1.85,4.74-2.93,.15-.14,.38-.13,.52,.02,.14,.15,.13,.38-.02,.52-.03,.02-.06,.04-.09,.06-1.54,1.11-3.16,2.11-4.84,3-.05,.02-.11,.03-.16,.03Z"/>
        <path class="cls-37" d="M190.21,500.92c1.27,2.63,2,5.5,2.14,8.42-.15,3.23-.98,6.39-2.43,9.28-.28,.65,.67,1.21,1,.56,1.54-3.06,2.41-6.42,2.57-9.84-.14-3.12-.92-6.19-2.28-9-.28-.66-1.23-.09-1,.55v.03Z"/>
        <path class="cls-15" d="M142.14,406.75s.06-.44,0-.3v-.36c0-.29,.09-.57,.13-.86,.09-.59,.2-1.17,.3-1.75,.21-1.14,.45-2.28,.7-3.41,.22-.57-.07-1.21-.64-1.43s-1.21,.07-1.43,.64c-.02,.07-.04,.13-.06,.2-.54,2.41-1,4.83-1.3,7.27,0,.61,.49,1.1,1.1,1.11,.61-.02,1.09-.5,1.11-1.11h.09Z"/>
        <ellipse class="cls-15" cx="142.92" cy="396.52" rx="1.21" ry=".9" transform="translate(-278.57 396.05) rotate(-70.11)"/>
        <path class="cls-28" d="M200.4,519.99h-52.59c-2.49,0-4.5-2.01-4.5-4.5s2.01-4.5,4.5-4.5h52.59c2.49,0,4.5,2.01,4.5,4.5s-2.01,4.5-4.5,4.5Z"/>
        <path class="cls-28" d="M380.36,519.99h-52.6c-2.49,0-4.5-2.01-4.5-4.5s2.01-4.5,4.5-4.5h52.6c2.49,0,4.5,2.01,4.5,4.5s-2.01,4.5-4.5,4.5h0Z"/>
        <path class="cls-28" d="M477.22,519.99h-7.6c-2.49,0-4.5-2.01-4.5-4.5s2.01-4.5,4.5-4.5h7.6c2.49,0,4.5,2.01,4.5,4.5s-2.01,4.5-4.5,4.5Z"/>
        <path class="cls-28" d="M67.93,519.99h-7.6c-2.49,0-4.5-2.01-4.5-4.5s2.01-4.5,4.5-4.5h7.6c2.49,0,4.5,2.01,4.5,4.5s-2.01,4.5-4.5,4.5Z"/>
        <path class="cls-28" d="M624,519.99h-7.6c-2.49,0-4.5-2.01-4.5-4.5s2.01-4.5,4.5-4.5h7.6c2.49,0,4.5,2.01,4.5,4.5s-2.01,4.5-4.5,4.5Z"/>
        <path class="cls-28" d="M452.64,519.99h-4.64c-2.49,0-4.5-2.01-4.5-4.5s2.01-4.5,4.5-4.5h4.6c2.49,0,4.5,2.01,4.5,4.5s-2.01,4.5-4.5,4.5h.04Z"/>
        <path class="cls-37" d="M22.64,395.92c-1.07,1.77-3.68,1.57-5.29,2.86-3.67,2.95-8,4.53-17.35,4.1,.62,2.44,2.78,4.17,5,5.41,7.35,4.08,16.1,4.78,24,1.91"/>
        <path class="cls-28" d="M24.72,394.76c-.19,2.81-3.48,4.2-4.63,6.78-2.62,5.88-6.93,10.53-18.52,15.84,2.28,2.58,6,3.33,9.43,3.46,11.52,.38,22.63-4.27,30.45-12.74"/>
        <path class="cls-37" d="M78,481.38c-1.07,1.77-3.68,1.57-5.28,2.86-3.68,2.95-8,4.53-17.36,4.09,.62,2.45,2.78,4.18,5,5.42,7.36,4.11,16.15,4.8,24.07,1.91"/>
        <path class="cls-28" d="M80.06,480.22c-.19,2.81-3.48,4.2-4.63,6.77-2.62,5.89-6.93,10.54-18.52,15.85,2.28,2.58,6,3.33,9.43,3.46,11.52,.38,22.63-4.27,30.45-12.74"/>
        <path class="cls-37" d="M41.79,402.81c2-.4,2.73-2.91,4.49-4,4-2.45,7-6,9.76-14.92,2.09,1.41,3,4,3.4,6.52,1.34,8.33-1.01,16.83-6.44,23.29"/>
        <path class="cls-28" d="M40,404.38c2.7,.78,5.13-1.84,7.95-2,6.42-.47,12.26-2.94,21.2-12,1.65,3,1.09,6.77,0,10.05-3.57,10.96-11.73,19.83-22.36,24.29"/>
        <path class="cls-37" d="M66.64,427.66c2-.4,2.73-2.92,4.49-4,4-2.46,7-6,9.76-14.92,2.08,1.41,3,4,3.39,6.51,1.36,8.32-.97,16.83-6.39,23.29"/>
        <path class="cls-28" d="M64.83,429.23c2.71,.78,5.14-1.84,8-2.05,6.43-.46,12.27-2.93,21.21-12,1.65,3,1.09,6.77,0,10.05-3.57,10.95-11.73,19.81-22.36,24.26"/>
        <path class="cls-37" d="M98.26,470.2c2-.4,2.73-2.92,4.49-4,4-2.45,7-6,9.76-14.92,2.09,1.41,3,4,3.4,6.52,1.35,8.32-.98,16.82-6.4,23.28"/>
        <path class="cls-28" d="M96.46,471.77c2.7,.78,5.14-1.84,8-2,6.42-.46,12.26-2.93,21.2-12,1.66,3,1.09,6.77,0,10.05-3.57,10.96-11.73,19.83-22.36,24.29"/>
        <path class="cls-30" d="M68.25,407.33c-6.82,18.28-23.49,28.76-39,34.73-9.37-16.44-19.07-36.07-21.09-55.07-.72-6.73-2.25-17.65,4.42-18.8,3.36-.57,9.61,3.26,12.49,5.08,15.51,9.86,29.98,21.28,43.18,34.06Z"/>
        <path class="cls-28" d="M98.75,442.09h0c-9.4,18.9-29.89,28.5-46.19,33.27-4.91-5.91-9.59-12-13.94-18.35-3.34-4.88-6.49-9.86-9.38-14.95,15.52-6,32.19-16.45,39-34.73,11.12,10.71,21.33,22.34,30.51,34.76Z"/>
        <path class="cls-30" d="M135.69,512.99l-47.48,.14c-12.37-12.14-24.61-24.47-35.65-37.77,16.3-4.77,36.79-14.34,46.19-33.26,16.04,21.49,28.52,45.43,36.94,70.89Z"/>
        <path class="cls-37" d="M117.69,513.72c-.16,0-.3-.08-.4-.2L15.64,379.4c-.17-.22-.12-.53,.1-.7,.22-.17,.53-.12,.7,.1l101.65,134.12c.16,.22,.12,.53-.1,.7-.09,.07-.19,.1-.3,.1Z"/>
        <path class="cls-37" d="M29.21,425.27c-1.09,0-2.21,0-3.32-.12-.28-.02-.48-.26-.47-.54s.26-.48,.53-.46c7.49,.36,14.99-.68,22.1-3.08,.26-.1,.55,.03,.65,.28s-.03,.55-.28,.65c0,0-.02,0-.03,0-6.19,2.07-12.66,3.17-19.19,3.26Z"/>
        <path class="cls-37" d="M51.39,425.54c-.14,0-.28-.06-.38-.17-.18-.21-.16-.53,.05-.71,4.05-3.79,7.36-8.31,9.76-13.32,.08-.26,.36-.41,.63-.33,.26,.08,.41,.36,.33,.63-.01,.03-.03,.07-.04,.1-2.45,5.14-5.84,9.78-10,13.67-.09,.09-.21,.13-.34,.13Z"/>
        <path class="cls-37" d="M66.58,445.18c-.28,0-.5-.23-.49-.51,0-.13,.06-.26,.15-.35,3.92-3.93,7.08-8.55,9.31-13.64,.1-.26,.39-.38,.65-.28,.26,.1,.38,.39,.28,.65-2.29,5.22-5.53,9.97-9.56,14-.09,.09-.21,.13-.34,.13Z"/>
        <path class="cls-37" d="M90.56,476.89c-.11,0-.22-.04-.31-.11-.22-.17-.26-.48-.09-.7,3.28-4.48,5.7-9.54,7.13-14.91,.06-.27,.33-.43,.6-.37,.27,.07,.43,.34,.37,.61-1.45,5.5-3.91,10.68-7.26,15.28-.1,.14-.27,.22-.44,.2Z"/>
        <path class="cls-37" d="M74.39,486.26c-1.1,0-2.21-.04-3.33-.12-.28-.02-.48-.26-.46-.54,.02-.28,.26-.48,.54-.46,7.49,.36,14.98-.68,22.09-3.07,.25-.1,.54,.03,.64,.28,0,0,0,0,0,.01,.1,.26-.03,.55-.28,.65,0,0,0,0,0,0-6.19,2.07-12.66,3.17-19.19,3.25Z"/>
        <path class="cls-37" d="M61.69,459.32c-.28,.02-.51-.19-.53-.47-.02-.28,.19-.51,.47-.53,4.21-.5,8.36-1.43,12.37-2.79,.25-.1,.54,.03,.64,.28,0,0,0,0,0,.01,.1,.26-.03,.55-.28,.65,0,0,0,0,0,0-4.1,1.38-8.33,2.33-12.63,2.85h-.03Z"/>
        <path class="cls-37" d="M20.19,404.54c-.28,.02-.51-.19-.53-.47-.02-.28,.19-.51,.47-.53,4.22-.5,8.37-1.44,12.4-2.8,.26-.09,.55,.04,.64,.3,.09,.26-.04,.55-.3,.64-4.1,1.39-8.33,2.34-12.62,2.85h-.06Z"/>
        <path class="cls-37" d="M47.29,440.4c-.28,.02-.51-.19-.53-.47-.02-.28,.19-.51,.47-.53,4.22-.5,8.38-1.44,12.4-2.8,.26-.1,.55,.04,.65,.3,.1,.26-.04,.55-.3,.64h0c-4.1,1.39-8.33,2.34-12.63,2.85h-.06Z"/>
        <path class="cls-37" d="M40.37,410.99c-.13,0-.25-.05-.34-.14-.2-.19-.2-.51,0-.71,0,0,0,0,0,0,1.7-1.86,3.27-3.84,4.7-5.92,.16-.23,.47-.28,.7-.13,.23,.16,.28,.47,.12,.7,0,0,0,0,0,0-1.46,2.1-3.06,4.11-4.79,6-.09,.12-.24,.2-.39,.2Z"/>
        <path class="cls-37" d="M103.14,493.87c-.13,0-.25-.05-.35-.14-.2-.19-.2-.51,0-.71,0,0,0,0,0,0,1.7-1.86,3.28-3.84,4.71-5.92,.16-.22,.46-.28,.69-.13,.23,.16,.28,.47,.13,.7-1.46,2.11-3.06,4.11-4.8,6-.09,.12-.23,.2-.38,.2Z"/>
        <path class="cls-37" d="M119,490.88c2.73,2.91,5.33,6.06,6.68,9.87,1.49,4.17,1.46,8.67,1.15,13-.07,1,1.43,1,1.5,0,.33-4.57,.32-9.33-1.29-13.68-1.47-3.95-4.13-7.24-7-10.28-.66-.71-1.72,.35-1.06,1.06l.02,.03Z"/>
        <path class="cls-15" d="M14.29,392.99c-.35-1.54-.64-3.09-.9-4.64s-.48-3.07-.65-4.45c-.02-.82-.68-1.48-1.5-1.5-.73,0-1.6,.67-1.5,1.5,.42,3.32,.92,6.63,1.66,9.89,.23,.79,1.04,1.26,1.84,1.05,.77-.26,1.21-1.07,1-1.85h.05Z"/>
        <ellipse class="cls-15" cx="10.68" cy="379.15" rx="1.22" ry="1.65"/>
        <path class="cls-27" d="M268.64,32.81c-.28,0-.55-.11-.74-.32-.37-.41-.35-1.04,.06-1.41,0,0,0,0,0,0,.22-.2,23.13-20.72,50-7.94,.5,.23,.73,.82,.5,1.32-.23,.5-.82,.73-1.32,.5-.01,0-.02-.01-.03-.02-25.68-12.2-47.63,7.41-47.84,7.61-.18,.16-.4,.25-.64,.26Z"/>
        <path class="cls-27" d="M323.7,36.92c-.28,0-.55-.13-.74-.34-18.89-21.3-46.73-11.81-47-11.71-.52,.18-1.09-.09-1.27-.61s.09-1.09,.61-1.28h0c.29-.1,29.4-10,49.16,12.27,.37,.41,.33,1.04-.08,1.41-.19,.17-.43,.26-.68,.26Z"/>
        <path class="cls-32" d="M211.69,69.45s-.28,28.24-7.06,37.55c6.18-5.76,10.88-12.92,13.7-20.89"/>
        <path class="cls-32" d="M212,76.09s-.29,28.23-7.06,37.55c6.18-5.76,10.88-12.93,13.69-20.89"/>
        <path class="cls-32" d="M251.5,47.92s18.38-21.43,29.56-24.21c-8.44,.44-16.65,2.9-23.93,7.19"/>
        <path class="cls-32" d="M255.55,42.66s18.38-21.44,29.56-24.21c-8.44,.43-16.64,2.9-23.92,7.19"/>
        <path class="cls-32" d="M244.62,49.1s16.11-23.2,27-27.09c-8.37,1.28-16.3,4.57-23.12,9.58"/>
        <path class="cls-32" d="M248.12,43.45s16.11-23.19,26.95-27.09c-8.35,1.31-16.27,4.61-23.07,9.63"/>
        <circle class="cls-10" cx="543.06" cy="430.77" r=".16"/>
        <ellipse class="cls-24" cx="543.85" cy="400.47" rx="38.65" ry="37.92"/>
        <path class="cls-20" d="M543.3,362.56c-.23,13.64-4.37,43.74-35.59,51.34-1.67-4.28-2.52-8.84-2.5-13.43-.02-1.67,.1-3.35,.36-5,2.29-16.04,14.45-28.9,30.34-32.08,2.43-.51,4.91-.79,7.39-.83Z"/>
        <path class="cls-15" d="M553.25,403.75c-.42-.93-1.02-1.76-1.77-2.46-.73-.67-1.55-1.25-2.43-1.71-.83-.45-1.69-.84-2.58-1.17-1.2-.43-2.3-.88-3.34-1.31-.94-.36-1.8-.89-2.54-1.57-.65-.58-1.01-1.4-1-2.27-.02-.65,.13-1.29,.44-1.86,.32-.52,.78-.93,1.34-1.18,.78-.29,1.6-.43,2.43-.4,.87-.02,1.72,.19,2.48,.61,.71,.43,1.33,.99,1.84,1.64,.53,.71,1,1.45,1.42,2.22l3.91-2.35c-.51-1.08-1.19-2.07-2-2.94-.91-.97-1.99-1.76-3.2-2.32-.81-.36-1.66-.62-2.53-.75v-4.69h-4l.12,4.6c-1.04,.13-2.05,.42-3,.85-1.3,.59-2.44,1.49-3.31,2.63-.79,1.07-1.22,2.36-1.21,3.69-.03,1.22,.23,2.42,.77,3.51,.47,.94,1.12,1.78,1.91,2.47,.75,.67,1.6,1.23,2.51,1.65,.79,.39,1.6,.73,2.44,1,1.11,.42,2.18,.87,3.18,1.32,.91,.42,1.74,1,2.45,1.71,.64,.72,.98,1.67,.94,2.63,.02,.74-.15,1.47-.48,2.13-.34,.59-.86,1.05-1.48,1.31-.8,.33-1.65,.48-2.51,.46-1.06,.02-2.11-.22-3.05-.71-.94-.49-1.77-1.17-2.43-2-.84-.98-1.55-2.06-2.12-3.22l-3.8,2.45c.61,1.46,1.48,2.8,2.58,3.94,1.11,1.16,2.43,2.09,3.9,2.74,.85,.39,1.75,.67,2.68,.83l-.08,4.4h4l-.08-4.31c1.24-.11,2.44-.42,3.58-.92,1.36-.62,2.5-1.64,3.28-2.91,.81-1.34,1.23-2.88,1.19-4.44,.09-1.12-.06-2.25-.45-3.3Z"/>
        <path class="cls-9" d="M543.7,431.99h-.13c-8.51,0-16.67-3.35-22.72-9.33-6.01-5.87-9.38-13.93-9.34-22.33,.08-17.34,14.51-31.39,32.19-31.39h.14c17.67,.07,32,14.21,32,31.52v.13c-.02,17.31-14.45,31.4-32.14,31.4Zm0-61.05c-16.59,0-30.11,13.16-30.19,29.4-.04,7.86,3.12,15.41,8.75,20.9,5.68,5.6,13.34,8.75,21.32,8.75h.12c16.59,0,30.12-13.17,30.19-29.4v-.13c0-16.21-13.48-29.45-30.06-29.52h-.13Z"/>
        <ellipse class="cls-24" cx="437.31" cy="327.06" rx="38.65" ry="37.92"/>
        <path class="cls-20" d="M436.76,289.15c-.23,13.63-4.37,43.74-35.59,51.34-1.67-4.28-2.52-8.84-2.51-13.43,0-1.67,.11-3.35,.37-5,2.29-16.04,14.45-28.89,30.34-32.07,2.43-.51,4.91-.8,7.39-.84Z"/>
        <path class="cls-15" d="M446.71,330.34c-.43-.93-1.03-1.77-1.77-2.47-.74-.67-1.55-1.24-2.43-1.7-.83-.45-1.69-.84-2.58-1.17-1.2-.43-2.3-.88-3.34-1.31-.94-.35-1.81-.89-2.54-1.58-.65-.58-1.01-1.4-1-2.27-.02-.64,.13-1.28,.44-1.85,.32-.52,.78-.93,1.34-1.18,.78-.29,1.6-.43,2.43-.4,.87-.03,1.72,.19,2.48,.61,.71,.43,1.33,.98,1.83,1.64,.53,.7,1.01,1.44,1.43,2.22l3.91-2.35c-.51-1.08-1.19-2.07-2-2.94-.91-.97-1.99-1.76-3.2-2.32-.81-.37-1.66-.62-2.54-.75v-4.7h-4l.12,4.61c-1.04,.13-2.05,.42-3,.85-1.31,.58-2.45,1.49-3.31,2.63-.79,1.06-1.22,2.35-1.21,3.68-.04,1.22,.23,2.43,.77,3.52,.48,.94,1.14,1.78,1.93,2.47,.75,.67,1.6,1.22,2.51,1.65,.79,.39,1.6,.73,2.44,1,1.11,.42,2.18,.87,3.17,1.31,.92,.42,1.75,1,2.46,1.72,.64,.73,.97,1.67,.94,2.63,.02,.74-.15,1.47-.49,2.12-.33,.59-.85,1.06-1.47,1.32-.8,.32-1.65,.48-2.51,.45-1.06,.03-2.11-.22-3.06-.7-.93-.5-1.76-1.18-2.42-2-.84-.98-1.56-2.07-2.12-3.23l-3.8,2.46c.61,1.46,1.48,2.79,2.58,3.93,1.1,1.17,2.43,2.1,3.9,2.75,.85,.39,1.75,.67,2.68,.82l-.08,4.41h4l-.08-4.31c1.24-.11,2.45-.42,3.58-.92,1.37-.62,2.51-1.64,3.29-2.92,.81-1.33,1.23-2.87,1.19-4.43,.08-1.12-.08-2.25-.47-3.3Z"/>
        <path class="cls-13" d="M437.16,358.54h-.16c-8.51,0-16.67-3.34-22.72-9.32-5.99-5.88-9.34-13.94-9.28-22.33,.08-17.34,14.51-31.39,32.19-31.39h.14c17.67,.07,32.05,14.21,32.05,31.52v.13c-.1,17.34-14.53,31.39-32.22,31.39Zm0-61c-16.59,0-30.12,13.16-30.19,29.4-.04,7.86,3.12,15.41,8.75,20.9,5.68,5.58,13.32,8.7,21.28,8.7h.13c16.59,0,30.12-13.16,30.19-29.39v-.16c0-16.21-13.48-29.45-30.06-29.52l-.1,.07Z"/>
        <ellipse class="cls-24" cx="401.73" cy="54.31" rx="38.65" ry="37.92"/>
        <path class="cls-20" d="M401.18,16.4c-.18,13.59-4.37,43.73-35.58,51.33-1.67-4.28-2.52-8.83-2.51-13.42-.01-1.67,.11-3.35,.36-5,2.79-18.74,18.78-32.68,37.73-32.87v-.04Z"/>
        <path class="cls-15" d="M411.13,57.59c-.42-.93-1.02-1.77-1.77-2.47-.73-.67-1.54-1.24-2.42-1.7-.84-.45-1.7-.84-2.59-1.17-1.19-.43-2.29-.88-3.34-1.31-.94-.36-1.8-.9-2.53-1.58-.65-.58-1.01-1.4-1-2.27-.01-.64,.14-1.28,.44-1.85,.32-.52,.78-.93,1.34-1.18,.78-.29,1.6-.43,2.43-.41,.87-.02,1.73,.19,2.48,.62,.71,.43,1.33,.99,1.83,1.64,.53,.7,1.01,1.44,1.42,2.22l3.92-2.35c-.51-1.08-1.19-2.07-2-2.94-.91-.98-2-1.76-3.21-2.32-.8-.37-1.66-.62-2.53-.75v-4.7h-4l.12,4.61c-1.04,.13-2.05,.42-3,.85-1.31,.58-2.45,1.48-3.32,2.62-.79,1.07-1.21,2.36-1.2,3.69-.04,1.22,.22,2.43,.76,3.52,.49,.94,1.14,1.77,1.93,2.47,.76,.66,1.6,1.22,2.51,1.65,.79,.39,1.6,.72,2.44,1,1.11,.42,2.19,.87,3.18,1.31,.92,.42,1.75,1,2.45,1.72,.64,.72,.98,1.67,.94,2.63,.02,.74-.14,1.47-.48,2.12-.33,.59-.85,1.05-1.48,1.31-.79,.33-1.64,.49-2.5,.46-1.06,.03-2.12-.22-3.06-.71-.94-.49-1.76-1.18-2.43-2-.84-.99-1.55-2.07-2.12-3.23l-3.79,2.46c.6,1.46,1.47,2.79,2.57,3.93,1.11,1.17,2.43,2.1,3.9,2.75,.86,.39,1.76,.66,2.69,.82l-.08,4.41h4l-.08-4.32c1.24-.1,2.44-.41,3.58-.91,1.36-.62,2.5-1.64,3.28-2.92,.82-1.33,1.23-2.87,1.2-4.43,.08-1.12-.08-2.24-.48-3.29Z"/>
        <path class="cls-13" d="M401.58,85.79h-.13c-8.5,0-16.66-3.35-22.71-9.32-6.01-5.87-9.38-13.94-9.34-22.34,.07-17.33,14.5-31.38,32.18-31.38h.14c17.68,.07,32.06,14.21,32.06,31.52v.13c-.08,17.34-14.51,31.39-32.2,31.39Zm0-61c-16.58,0-30.11,13.16-30.18,29.39-.04,7.87,3.11,15.41,8.74,20.91,5.68,5.6,13.34,8.74,21.32,8.74h.12c16.59,0,30.13-13.16,30.2-29.39v-.13c0-16.21-13.49-29.46-30.06-29.52h-.14Z"/>
        <ellipse class="cls-24" cx="387.54" cy="190.43" rx="32.43" ry="31.83"/>
        <path class="cls-20" d="M387.08,158.62c-.19,11.44-3.67,36.7-29.87,43.08-1.4-3.59-2.11-7.42-2.1-11.27,0-1.42,.09-2.83,.3-4.23,2.34-15.73,15.77-27.43,31.67-27.58Z"/>
        <path class="cls-15" d="M395.43,193.19c-.35-.78-.86-1.48-1.48-2.07-.6-.56-1.28-1.04-2-1.44-.7-.38-1.43-.71-2.17-1-1-.36-1.93-.73-2.81-1.1-.79-.3-1.51-.75-2.12-1.32-.53-.49-.83-1.18-.81-1.9-.02-.54,.11-1.08,.37-1.56,.26-.44,.65-.79,1.12-1,.64-.24,1.32-.35,2-.34,.73-.02,1.45,.16,2.08,.52,.6,.36,1.12,.83,1.54,1.38,.45,.59,.85,1.21,1.2,1.86l3.28-2c-.42-.91-.99-1.74-1.67-2.47-.76-.82-1.67-1.48-2.69-1.95-.68-.31-1.39-.52-2.13-.63v-3.88h-3.38l.11,3.86c-.87,.11-1.71,.36-2.51,.72-1.1,.48-2.06,1.24-2.78,2.2-.66,.9-1.01,1.99-1,3.1-.03,1.02,.19,2.03,.64,2.95,.41,.78,.96,1.48,1.62,2.07,.63,.56,1.34,1.03,2.11,1.39,.66,.33,1.35,.61,2.05,.84,.93,.36,1.83,.73,2.66,1.11,.77,.36,1.46,.85,2.04,1.46,.54,.6,.82,1.39,.79,2.2,.02,.62-.12,1.24-.4,1.79-.28,.49-.72,.88-1.24,1.1-.67,.27-1.39,.4-2.11,.38-.89,.02-1.77-.18-2.56-.59-.77-.43-1.45-1.01-2-1.71-.7-.83-1.3-1.74-1.78-2.71l-3.18,2.06c.51,1.23,1.24,2.35,2.16,3.31,.93,.97,2.04,1.75,3.27,2.3,.72,.33,1.48,.56,2.26,.69l-.07,3.7h3.37l-.06-3.62c1.04-.09,2.05-.35,3-.77,1.14-.52,2.1-1.38,2.76-2.45,.68-1.12,1.03-2.41,1-3.72,.04-.94-.12-1.89-.48-2.76Z"/>
        <path class="cls-13" d="M387.42,216.86h-.12c-7.14-.01-13.99-2.84-19.06-7.87-5.05-4.93-7.88-11.69-7.84-18.74,.07-14.55,12.17-26.34,27-26.34h.12c14.84,.06,26.9,11.92,26.9,26.45v.11c-.05,14.59-12.16,26.39-27,26.39Zm0-51.24c-13.92,0-25.27,11.05-25.33,24.68-.03,6.6,2.62,12.93,7.34,17.54,4.77,4.7,11.19,7.34,17.89,7.34h.11c13.92,0,25.28-11.05,25.34-24.67v-.11c0-13.61-11.32-24.72-25.23-24.78h-.12Z"/>
        <ellipse class="cls-24" cx="432.04" cy="465.23" rx="38.65" ry="37.92"/>
        <path class="cls-20" d="M431.49,427.31c-.23,13.64-4.37,43.74-35.59,51.34-1.67-4.28-2.52-8.83-2.51-13.42-.01-1.67,.11-3.35,.37-5,2.28-16.05,14.44-28.91,30.34-32.09,2.43-.51,4.91-.79,7.39-.83Z"/>
        <path class="cls-15" d="M441.44,468.51c-.42-.93-1.02-1.77-1.77-2.47-.73-.67-1.55-1.24-2.43-1.71-.84-.44-1.7-.83-2.59-1.16-1.19-.44-2.29-.88-3.33-1.32-.94-.35-1.8-.89-2.54-1.57-.65-.58-1.01-1.4-1-2.27-.02-.64,.13-1.28,.44-1.85,.32-.53,.81-.94,1.38-1.17,.78-.29,1.6-.43,2.43-.41,.87-.02,1.72,.19,2.48,.62,.71,.43,1.33,.98,1.83,1.64,.53,.7,1.01,1.44,1.43,2.21l3.91-2.34c-.51-1.08-1.18-2.07-2-2.94-.9-.98-1.99-1.77-3.2-2.33-.81-.36-1.66-.61-2.54-.74v-4.71h-4l.12,4.6c-1.04,.13-2.05,.42-3,.86-1.3,.58-2.44,1.48-3.31,2.62-.79,1.07-1.22,2.36-1.21,3.69-.04,1.22,.23,2.43,.77,3.52,.48,.94,1.14,1.77,1.93,2.46,.75,.67,1.6,1.23,2.51,1.66,.79,.39,1.6,.72,2.44,1,1.11,.42,2.18,.86,3.17,1.31,.92,.42,1.75,1,2.46,1.72,.64,.72,.97,1.66,.94,2.62,.02,.74-.15,1.47-.49,2.13-.33,.59-.85,1.05-1.47,1.31-.8,.33-1.65,.48-2.51,.46-1.06,.02-2.12-.22-3.06-.71-.93-.5-1.76-1.18-2.42-2-.84-.98-1.55-2.07-2.12-3.23l-3.8,2.45c.61,1.46,1.48,2.8,2.58,3.94,1.1,1.16,2.43,2.1,3.9,2.74,.84,.39,1.72,.68,2.63,.85l-.08,4.41h4l-.08-4.32c1.24-.11,2.45-.42,3.58-.92,1.36-.62,2.51-1.63,3.29-2.91,.81-1.34,1.23-2.88,1.19-4.44,.08-1.12-.07-2.25-.46-3.3Z"/>
        <path class="cls-13" d="M431.89,496.71h-.13c-8.52,0-16.69-3.34-22.76-9.32-6.01-5.87-9.38-13.94-9.34-22.34,.08-17.33,14.5-31.39,32.19-31.39h.15c17.67,.08,32.05,14.22,32.05,31.52v.14c-.05,17.33-14.47,31.39-32.16,31.39Zm0-61.05c-16.59,0-30.12,13.16-30.19,29.4-.04,7.86,3.12,15.41,8.75,20.9,5.68,5.6,13.33,8.75,21.31,8.75h.13c16.59,0,30.12-13.16,30.19-29.4v-.13c0-16.21-13.48-29.45-30.06-29.52h-.13Z"/>
        <path class="cls-17" d="M350.51,448.49l-1,.42-5,66.6c-40.43,5.08-73.4,2.34-114.1,.29l-35.69-1.81-3.9,5.06-6.52-81.6,16.34-5.34c22.43-11.69,48.83-12,74.11-12.1,19.57-.05,40.66,.37,56.35,12.06,8.67,6.49,19.62,5.62,19.41,16.42Z"/>
        <path class="cls-18" d="M186.06,468.33l-1.76-28.68,16.34-55c22.43-11.69,48.83-12,74.11-12.1,19.57,0,40.66,.37,56.35,12.06,8.67,6.46-25.46,12.94-25.67,23.74l44.89,30.3-2.12,29.23-20.28,4c-40.8,4.29-81.95,4.17-122.73-.38l-19.13-3.17Z"/>
        <path class="cls-12" d="M188.47,480.55h-.23c-.55-.02-.98-.49-.96-1.04,.02-.55,.49-.98,1.04-.96h0c.61,0,15,.32,22.7-17.45,.22-.51,.8-.74,1.31-.53,.51,.21,.75,.8,.53,1.31,0,0,0,0,0,.01-4.29,9.94-10.72,14.48-15.36,16.55-2.84,1.3-5.91,2.02-9.03,2.11Z"/>
        <path class="cls-12" d="M346,478.43c-2.79-.03-5.56-.54-8.18-1.51-4.77-1.74-11.5-5.83-16.46-15.45-.2-.51,.05-1.09,.56-1.3,.44-.17,.95-.01,1.21,.39,8.88,17.2,23.25,15.9,23.86,15.84,.55-.06,1.05,.34,1.11,.89,.06,.55-.34,1.05-.9,1.11-.4,.03-.8,.04-1.2,.03Z"/>
        <path class="cls-31" d="M208.55,477.53c-1.19,0-2.16-.96-2.17-2.15,0-1.19,.96-2.16,2.15-2.17,1.19,0,2.16,.96,2.17,2.15,0,0,0,0,0,0,0,1.19-.96,2.15-2.15,2.16Zm0-3.32c-.64,0-1.16,.51-1.17,1.15s.51,1.16,1.15,1.17c.64,0,1.16-.51,1.17-1.15,0,0,0,0,0,0,0-.64-.51-1.15-1.15-1.16Z"/>
        <path class="cls-31" d="M196.4,484.86c-1.19,0-2.16-.97-2.16-2.16,0-1.19,.97-2.16,2.16-2.16s2.16,.97,2.16,2.16-.97,2.16-2.16,2.16h0Zm0-3.32c-.64,0-1.16,.52-1.16,1.16,0,.64,.52,1.16,1.16,1.16s1.16-.52,1.16-1.16-.52-1.16-1.16-1.16h0Z"/>
        <path class="cls-31" d="M325.44,476.53c-1.19,0-2.16-.97-2.16-2.16s.97-2.16,2.16-2.16,2.16,.97,2.16,2.16-.97,2.16-2.16,2.16h0Zm0-3.32c-.64,0-1.16,.52-1.16,1.16s.52,1.16,1.16,1.16,1.16-.52,1.16-1.16-.52-1.16-1.16-1.16h0Z"/>
        <path class="cls-31" d="M337.89,483.04c-1.19,0-2.16-.97-2.16-2.16s.97-2.16,2.16-2.16,2.16,.97,2.16,2.16-.97,2.16-2.16,2.16h0Zm0-3.32c-.64,0-1.16,.52-1.16,1.16s.52,1.16,1.16,1.16,1.16-.52,1.16-1.16-.52-1.16-1.16-1.16h0Z"/>
        <path class="cls-12" d="M275.79,514.31c-.55,0-1-.45-1-1v-19.16c0-2.89-2.14-5.33-5-5.72l-2.32-.3c-4.04-.53-7.06-3.97-7.07-8.05v-21.7c0-.55,.45-1,1-1s1,.45,1,1v21.7c0,3.07,2.28,5.67,5.33,6.07l2.32,.3c3.86,.51,6.75,3.8,6.76,7.7v19.16c0,.55-.45,1-1,1,0,0-.01,0-.02,0Z"/>
        <path class="cls-16" d="M452.53,233.16c2.73-5.18,.76-13.28,.76-13.28l6.49-1.25c3.21-.61,5.31-3.7,4.7-6.91-.03-.13-.06-.27-.09-.4l-.3-1.16c-.16-.65-.51-1.25-1-1.71l-.55-.52c-.92-.88-1.3-2.18-1-3.42h0c.13-.53,.13-1.09,0-1.62l-1-4.41c-.7-3.01-3.59-4.98-6.64-4.52l-6.64,1-12.71-8.28-12.25,12.56c-2.22,2.29-2.16,5.94,.12,8.16,.16,.15,.32,.3,.5,.43l5.52,4.24,.94,8.76"/>
        <path class="cls-23" d="M443.64,225.47c4.76,1.53,9.96,.69,14-2.26l-2-3.29h-5.88l-4.52,2.73-1.6,2.82Z"/>
        <path class="cls-26" d="M340.58,456.27c7.31-.58,12.76-6.97,12.18-14.28-.02-.24-.04-.48-.08-.72l-11.1-82.84c-1.14-8.47-1.61-17.01-1.42-25.55l1.64-72.81c2.81-27.06-13.84-52.35-39.8-60.47l-31-9.74-62.72,19.55c-14.2,4.43-23.49,18.05-22.43,32.89l6.27,87.69c2.12,29.5-.15,59.16-6.73,88l-4.12,18.08c-1.37,5.66-.12,11.64,3.4,16.28,2.8,3.86,7.23,6.2,12,6.34h.44c47.84,2.17,95.76,1.35,143.5-2.46l-.03,.04Z"/>
        <path class="cls-16" d="M290.6,196.79c-2,2.94-5.58,4.27-9,5.23-8.59,2.41-18.09,3.53-26.2-.18-1.54-.61-2.9-1.62-3.94-2.91-.92-1.5-1.49-3.18-1.69-4.92v-36.65l42.5,5.68c0,4.53,.04,9.06,.11,13.59v16.61c.1,3.3,.06,.82-1.78,3.55Z"/>
        <path class="cls-4" d="M249.77,177.82v-13.91c1.75,.77,3.54,1.47,5.36,2.08,1.65,.56,3.31,1.05,5,1.47l1.93,.48c3.26,.82,6.56,1.48,9.88,2,5.54,.85,11.14,1.28,16.75,1.28,.44,0,.88,0,1.32-.05h.66l.84-.1,.83-.14v10.89h-.22c-14.26,1.99-28.79,.62-42.43-4h.08Z"/>
        <path class="cls-26" d="M272.12,208.63c-9.59-.16-18.99-2.71-27.34-7.42-2.13-1.28-2.81-4.05-1.53-6.18,1.28-2.13,4.05-2.81,6.18-1.53h0c1,.59,24.5,14.36,44.25-1.48,1.84-1.67,4.68-1.54,6.36,.3,1.67,1.84,1.54,4.68-.3,6.36-.14,.12-.28,.24-.43,.35-7.67,6.28-17.28,9.67-27.19,9.61Z"/>
        <path class="cls-26" d="M295.88,207.84c13-3.39,27.18-1.17,39.24,4.82s22.12,15.54,29.95,26.49c13.35,18.66,21.69,42.53,41.66,53.82l22.47-73.98h0l1.07,.76c7,5,15.07,8.31,23.57,9.65h0c-4.36,22.57-6.83,56.79-11.19,79.36-.93,4.83-1.89,9.73-4.07,14.13-4.58,9.33-14.4,15.39-24.58,17.1s-20.79-.44-30.39-4.36c-19.58-8-37.33-34.53-52.61-49.17"/>
        <path class="cls-19" d="M428.44,175.37l15.2,50.14,.55-.33c4.04-2.42,8.88-3.11,13.43-1.93l-.71-2.72-10.4-45.92-18.07,.76Z"/>
        <path class="cls-16" d="M433.05,209.17c-2.76,0-5-2.25-4.99-5.01,0-1.16,.41-2.28,1.14-3.17l7.15-8.66c1.76-2.13,4.91-2.43,7.04-.67,2.13,1.76,2.43,4.91,.67,7.04l-7.15,8.66c-.95,1.15-2.37,1.81-3.86,1.81Z"/>
        <rect class="cls-34" x="174.99" y="291.67" width="43.58" height="2" transform="translate(-141.82 391.27) rotate(-72.32)"/>
        <rect class="cls-34" x="188.6" y="293.68" width="2" height="19.79" transform="translate(-16.5 10.95) rotate(-3.17)"/>
        <path class="cls-16" d="M141.35,471.88c.45,3.84-1.61,7.39-3.06,11-2.9,7.47-4.06,15.51-3.38,23.5,.39,5.42,.93,11.21,4.33,15.44s9,6,14.43,6.88c5.17,.8,10.89,.82,15.14-2.23,4.75-3.4,6.42-9.73,6.5-15.56s-7.64-13.51-7.06-19.31c.37-3.7,1.42-7.53,.2-11-.93-2.24-2.36-4.25-4.19-5.85-4.45-4.44-2.87-6.51-8.25-9.76"/>
        <path class="cls-34" d="M452.14,234.99c-12.61,0-24.92-9.48-25.44-9.89-.46-.31-.58-.93-.27-1.39,.31-.46,.93-.58,1.39-.27,.03,.02,.07,.05,.1,.08,.13,.1,12.66,9.75,24.78,9.46,.55-.01,1.01,.42,1.02,.98s-.42,1.01-.98,1.02h-.61Z"/>
        <path class="cls-34" d="M340.72,297.16c-.53,0-.96-.41-1-.93l-1.72-23.85c-.04-.55,.38-1.03,.93-1.07s1.03,.38,1.07,.93l1.69,23.84c.04,.55-.37,1.03-.93,1.07,0,0,0,0,0,0h-.04Z"/>
        <path class="cls-34" d="M270,209.89c-2.96,0-5.91-.3-8.81-.91-4.54-.88-8.88-2.57-12.82-5-.46-.31-.57-.93-.26-1.39,.31-.46,.93-.57,1.39-.26,.19,.12,18.73,12.47,41.88-.06,.49-.26,1.09-.07,1.35,.41,.26,.48,.08,1.09-.4,1.35-6.83,3.8-14.51,5.82-22.33,5.86Z"/>
        <path class="cls-8" d="M449.65,188.56c-8.06-2.58-10.81,.88-17.52-.89l-1.72-5.84c6.22,.77,12.24,1.74,18.39,3.08l.85,3.65Z"/>
        <path class="cls-27" d="M218.06,46.99c-.21-3.66-2.69-7-2.59-10.61,3.12,1.87,6.15,3.87,9.08,6"/>
        <path class="cls-27" d="M217.45,48.19c-1.89-3.14-5.62-4.9-7.24-8.18,3.63,.2,7.24,.57,10.85,1.11"/>
        <path class="cls-32" d="M316.88,80.44c4.72,1.83,10.31-1,12.93-5.31s2.79-9.73,2-14.73c-1.87-12-11-26-21.17-32.68-10.33-6.66-22.97-8.71-34.87-5.65-3.91,1-7.69,2.61-11.7,3.14-7.26,1-14.58-1.62-21.89-1.1-15.57,1.09-27.06,16.14-30.18,31.43-3.12,15.29-.2,31.08,1.1,46.64,.46,5.38,.55,11.31-2.78,15.56"/>
        <path class="cls-16" d="M323.9,129.91c0,2.72-.3,5.43-.9,8.08-2.48,11.11-7.91,21.35-15.72,29.63l-3.3,3.48c-1.75,1.85-3.86,3.33-6.19,4.36-1.23,.54-2.51,.94-3.83,1.19h0l-.79,.14-.79,.1-.63,.05h-1.25c-5.33,0-10.65-.43-15.91-1.28-3.15-.51-6.27-1.17-9.38-2l-1.83-.48c-1.61-.42-3.21-.91-4.78-1.47-1.72-.61-3.42-1.31-5.09-2.08-.85-.4-1.7-.81-2.54-1.25-.37-.19-.73-.39-1.09-.59s-.61-.33-.9-.5l-.19-.11c-3.18-1.82-6.2-3.93-9-6.3-4.46-3.83-7.55-9.02-8.79-14.77l-.82-3.8c-3.37-15.5-4.63-31.38-3.74-47.21l1.88-33.28h92.94l-1.11,28.84c-.22,5.57,.07,11.15,.86,16.67l2.51,17.41c.25,1.71,.37,3.44,.38,5.17Z"/>
        <ellipse class="cls-35" cx="284.31" cy="108.54" rx="4.52" ry="6.78"/>
        <ellipse class="cls-35" cx="310.85" cy="108.54" rx="4.52" ry="6.78"/>
        <path class="cls-15" d="M287.8,133.78c3.84,1.21,7.84,1.82,11.86,1.81,4.05-.03,7.97-1.4,11.17-3.89,.22,3.52-1.93,6.8-4.57,9.14s-6.4,4.22-10,3.56c-1.8-.39-3.47-1.21-4.86-2.41-2.84-2.32-4.79-5.54-5.53-9.13"/>
        <path class="cls-3" d="M294.3,126.99c3.05,1.76,6.88,1.46,9.61-.77,.58-.59,.58-1.53,0-2.12-.6-.56-1.52-.56-2.12,0-.14,.11-.07,0,0,0l-.18,.13c-.14,.1-.29,.19-.45,.27l-.4,.22s-.27,.11-.09,0-.05,0-.09,0c-.31,.11-.62,.2-.94,.27-.15,.04-.3,.07-.45,.08,0,0,.31,0,.05,0h-1.44c-.21,0,.27,.05,.06,0l-.51-.1c-.3-.07-.59-.16-.88-.27-.27-.09,.15,.08,0,0l-.21-.1c-.15-.08-.31-.16-.45-.25-.73-.42-1.66-.16-2.07,.57s-.16,1.66,.57,2.07Z"/>
        <path class="cls-21" d="M303.1,32.37c4.19,2.16,7.76,5.37,10.35,9.31,.52,.64,1.47,.74,2.11,.22,.52-.42,.69-1.13,.44-1.74-2.86-4.38-6.79-7.96-11.43-10.38-.72-.39-1.62-.16-2.05,.54-.41,.72-.17,1.63,.54,2.05h.04Z"/>
        <path class="cls-21" d="M318.72,49.24c.83,0,1.5-.67,1.5-1.5s-.67-1.5-1.5-1.5-1.5,.67-1.5,1.5,.67,1.5,1.5,1.5Z"/>
        <path class="cls-6" d="M230.91,87.75c-.82,0-1.49-.67-1.5-1.49-.06-10.91,8.74-19.79,19.65-19.85,.03,0,.07,0,.1,0,11.42,0,22.74,2.11,33.39,6.24,9.69,3.49,18.9,4,28.14,1.58,.81-.18,1.61,.33,1.79,1.14,.17,.77-.28,1.53-1.03,1.76-9.84,2.59-19.64,2-29.95-1.67-10.31-3.99-21.28-6.02-32.34-6-9.24-.01-16.74,7.47-16.75,16.71,0,.04,0,.08,0,.12,0,.83-.67,1.5-1.5,1.51v-.05Z"/>
        <circle class="cls-15" cx="279.91" cy="106.32" r="1.45"/>
        <circle class="cls-15" cx="306.33" cy="106.32" r="1.45"/>
        <path class="cls-32" d="M220.62,115.69h10.16s.19-20.5,.14-30.44c-.05-10.08,8.08-18.29,18.16-18.34,.03,0,.06,0,.09,0h0c11.23,0,22.36,2.08,32.83,6.14h0c9.27,3.59,19.44,4.17,29.06,1.64h0c8.15-2.14,13.83-9.5,13.84-17.93v-.77h-104.28v59.7Z"/>
        <path class="cls-6" d="M238.42,113.19c-.83,0-1.5-.67-1.5-1.5v-22.24c-.01-.68,.43-1.27,1.08-1.46,3.77-1.11,6.72-3.24,10-6.09,3.17-2.74,5.69-6.16,7.36-10,.29-.77,1.16-1.16,1.93-.87,.77,.29,1.16,1.16,.87,1.93-.01,.04-.03,.07-.05,.11-1.86,4.23-4.64,7.99-8.14,11-2.9,2.74-6.29,4.9-10,6.36v21.26c0,.83-.67,1.5-1.5,1.5-.02,0-.04,0-.06,0Z"/>
        <ellipse class="cls-32" cx="237.68" cy="69.69" rx="23.11" ry="15.99" transform="translate(20.34 188.48) rotate(-45)"/>
        <path class="cls-32" d="M230.79,115.89h0v-27.9l12.7-4.14,1.93,15.49c1,8.08-4.74,15.44-12.82,16.44-.6,.07-1.21,.11-1.81,.11Z"/>
        <circle class="cls-16" cx="222.64" cy="119.32" r="14.44"/>
        <path class="cls-14" d="M217.55,112.89c.95-1.21,2.48-1.81,4-1.6,1.35,.25,2.4,1.33,2.61,2.69,0,.87-.06,1.74-.19,2.6-.11,2.4,.77,4.74,2.42,6.48,.67,.72,1.74-.36,1.07-1.08-1.23-1.31-1.94-3.02-2-4.82,0-.92,.2-1.82,.22-2.74,.01-.86-.22-1.7-.68-2.43-2-3.12-6.29-2.76-8.54-.17-.64,.73,.43,1.82,1.08,1.07h0Z"/>
        <path class="cls-21" d="M215.64,70.93c.18-5.08,.22-10.29,1.46-15.25,.11-.61-.29-1.2-.91-1.32-.54-.1-1.07,.2-1.26,.72-1.28,5.16-1.36,10.57-1.54,15.85,.06,.62,.61,1.08,1.23,1.02,.54-.05,.97-.48,1.02-1.02h0Z"/>
        <path class="cls-35" d="M275.39,100.55c4.03-2.73,8.75-4.28,13.61-4.47,1.93-.07,1.94-3.07,0-3-5.4,.2-10.64,1.9-15.13,4.91-.69,.44-.93,1.34-.54,2.06,.43,.71,1.34,.94,2.06,.53v-.03Z"/>
        <path class="cls-35" d="M319.07,97.99c-4.47-3-9.69-4.7-15.07-4.91-1.93-.07-1.92,2.93,0,3,4.85,.2,9.55,1.75,13.57,4.47,.71,.41,1.63,.18,2.05-.53,.4-.72,.16-1.63-.54-2.06v.03Z"/>
        <path class="cls-26" d="M172.33,485.77l-40-.33c.66-37.33,3.31-74.59,7.93-111.64,10.53-82.66,28.88-134.18,56.09-157.5l26,30.37c-10.71,9.18-30.46,38.52-42.4,131.83-4.4,35.6-6.94,71.41-7.62,107.27Z"/>
        <path class="cls-15" d="M193,230.99c4.24-4.96,9.29-9.17,14.92-12.46,.7-.44,.91-1.37,.47-2.07-.42-.66-1.28-.89-1.98-.52-5.86,3.42-11.11,7.79-15.53,12.93-.56,.6-.56,1.52,0,2.12,.59,.58,1.53,.58,2.12,0Z"/>
        <ellipse class="cls-15" cx="213.29" cy="214.73" rx="3.11" ry="1.84" transform="translate(-54.82 74.31) rotate(-17.55)"/>
        <path class="cls-34" d="M190.36,317.49c-.1,.01-.21,.01-.31,0-.53-.17-.82-.73-.65-1.26,0,0,0,0,0,0l13.23-41.52c.17-.53,.73-.82,1.26-.65,0,0,0,0,0,0,.53,.17,.82,.73,.65,1.26,0,0,0,0,0,0l-13.23,41.52c-.15,.4-.53,.66-.95,.65Z"/>
        <path class="cls-34" d="M190.36,317.49c-.53,0-.97-.41-1-.94l-1.1-19.76c-.03-.55,.39-1.02,.95-1.05s1.02,.39,1.05,.95l1.1,19.76c.03,.55-.4,1.02-.95,1.05-.02,0-.03,0-.05,0Z"/>
        <path class="cls-34" d="M179.91,372.41c-.48,0-.9-.33-1-.8l-3.11-15.81c-.11-.55,.25-1.09,.8-1.2s1.09,.25,1.2,.8l3.1,15.81c.11,.54-.24,1.07-.78,1.18,0,0,0,0,0,0h-.2Z"/>
        <path class="cls-15" d="M146.54,375.7l1.74-11.6c.19-.79-.27-1.6-1.05-1.84-.8-.22-1.62,.25-1.84,1.05l-1.74,11.59c-.2,.78,.24,1.59,1,1.85,.8,.21,1.62-.26,1.84-1.05h.05Z"/>
        <ellipse class="cls-15" cx="148.24" cy="357.33" rx="2.92" ry="1.79" transform="translate(-238.13 376.71) rotate(-70.34)"/>
        <path class="cls-22" d="M616.62,197.49c-1.71,1.71-3.84,2.93-6.18,3.54-.2,.05-.39,.09-.59,.12l-7.81-.81-207.37-21.47c-2.95-.31-5.92-.38-8.88-.22-.35,0-.69,0-1,.06-3,.2-5.97,.64-8.9,1.32-.31,.06-.62,.13-.93,.21-6.4,1.6-13.18,.6-18.85-2.78-5.64-3.35-9.7-8.83-11.26-15.2-3.21-13.31,4.98-26.7,18.29-29.91,0,0,0,0,0,0l.61-.15,.65-.17c3.26-.84,6.44-1.97,9.5-3.37,3.12-1.42,6.1-3.12,8.92-5.08L553.85,4.84h0l6-4.14c.37-.13,.73-.24,1.11-.34,2.29-.53,4.68-.46,6.93,.21-6.09,17.8-19.87,65.07-9.74,106.5,10.22,41.84,44.94,77.7,58.47,90.42Z"/>
        <ellipse class="cls-15" cx="475.52" cy="69.53" rx="3.61" ry="2.48" transform="translate(91.82 358.89) rotate(-45.34)"/>
        <path class="cls-15" d="M444.54,91.92c-.88,.01-1.6-.69-1.61-1.57,0-.54,.26-1.05,.72-1.35l22.66-15.09c.76-.45,1.74-.19,2.19,.57,.41,.7,.23,1.6-.42,2.09l-22.66,15.09c-.26,.17-.57,.26-.88,.26Z"/>
        <path class="cls-29" d="M619.88,92.25c12,48.74,10.21,92.29-3.26,105.23-1.71,1.71-3.84,2.94-6.18,3.54-.2,.05-.39,.1-.59,.13-2.63,.47-5.33,.19-7.81-.81-17.69-6.58-38.8-43.64-50.54-91.23s-10.28-90.26,2.35-104.27h0c1.61-1.88,3.68-3.3,6-4.15,.36-.13,.73-.24,1.11-.33,2.29-.54,4.68-.47,6.93,.2,17.96,4.98,39.93,42.78,51.99,91.69Z"/>
        <path class="cls-36" d="M572.73,129.05l-8.43,4.86c-3.84-8.22-5.73-17.22-7.86-26.12-1.84-7.72-4-15.59-4.47-23.5l9.7-.69-.67,2.07c-1.39,17.29,2.28,30.84,11.77,43.38h-.04Z"/>
        <path class="cls-33" d="M385.79,178.65c-.35,0-.69,0-1,.06-3,.2-5.97,.64-8.9,1.32-9.08-14.27-13.13-31.17-11.49-48,3.26-.84,6.44-1.97,9.5-3.37-2.86,17.58,1.42,35.58,11.89,49.99Z"/>
        <path class="cls-33" d="M560,190.33h-.15l-101.08-9.88c-.83-.08-1.44-.82-1.36-1.65,.08-.83,.82-1.44,1.65-1.35l101.08,9.88c.83,.04,1.47,.74,1.43,1.57s-.74,1.47-1.57,1.43h0Z"/>
        <path class="cls-34" d="M418.46,296.93h-.13c-.31,0-7.66-1.06-11.48-3-.5-.23-.72-.82-.49-1.33,.23-.5,.82-.72,1.33-.49,.02,0,.04,.02,.05,.03,3.52,1.75,10.79,2.76,10.86,2.77,.55,.04,.97,.52,.93,1.07s-.52,.97-1.07,.93v.02Z"/>
        <circle class="cls-31" cx="255.1" cy="464.16" r="2.2"/>
        <circle class="cls-31" cx="255.1" cy="472.09" r="2.2"/>
        <circle class="cls-31" cx="255.1" cy="480.02" r="2.2"/>
        <ellipse class="cls-2" cx="527.64" cy="102.33" rx="10.73" ry="22.02"/>
        <ellipse class="cls-2" cx="506.75" cy="84.83" rx="4.01" ry="8.23"/>
        <path class="cls-14" d="M219,117.99h-.2c-.4-.12-.63-.53-.52-.93,.6-2.66,2.77-4.67,5.47-5.06,.41-.09,.8,.17,.89,.58,.09,.41-.17,.8-.58,.89-.03,0-.05,0-.08,.01-2.12,.3-3.83,1.9-4.26,4-.1,.31-.39,.51-.72,.51Z"/>
        <path class="cls-34" d="M271.3,445.06c-30.08-.02-60.14-1.84-90-5.46-.55-.07-.93-.57-.86-1.12,.07-.55,.57-.93,1.12-.86,0,0,0,0,0,0,.93,.13,94.18,12.54,169.39-.56,.55-.09,1.08,.28,1.17,.83,.09,.55-.28,1.08-.83,1.17-26.01,4.51-54.21,6-80,6Z"/>
        <path class="cls-5" d="M410.28,328.56c-2,.14-4,.14-6,0-.53,0-1.05-.07-1.58-.12-.23,0-1.63-.21-.77-.08l-.76-.12c-.52-.08-1-.17-1.55-.27-3.88-.79-7.69-1.93-11.36-3.42-.19-.11-.4-.2-.62-.25,0,0,1,.47,.44,.18l-1.37-.64c-.83-.41-1.66-.86-2.47-1.33-1.63-.95-3.2-1.99-4.71-3.11l-.53-.39c-1-.72,.19,.1,.18,.14-.31-.3-.64-.57-1-.81-.8-.64-1.58-1.3-2.35-2-1.43-1.23-2.83-2.5-4.22-3.78-5.99-5.66-11.64-11.67-16.93-18-.3-.35-.58-.72-.89-1.06s.29,.37,.3,.41c-.1-.18-.22-.35-.36-.5-.54-.77-1.02-1.58-1.43-2.42-.07-.19-.16-.38-.26-.56,0,0,.41,1.11,.23,.49-.11-.39-.27-.77-.39-1.16s-.25-.91-.35-1.38c0-.2-.06-.4-.11-.6-.2-.78,.09,1.19,0,.38-.08-1.27-.16-2.53-.22-3.79l-.55-10.89c-.16-3.13-2.65-6.15-6-6-3.12,.14-6.17,2.64-6,6l.5,10c.07,1.2,.12,2.41,.19,3.61,.19,4.41,1.57,8.69,4,12.38,2.74,3.71,5.73,7.23,8.93,10.55,2.9,3.21,5.88,6.35,9,9.33,5.94,5.66,12.31,11.44,19.77,15,9,4.3,19.23,6.83,29.21,6.14,3.12-.21,6.15-2.6,6-6-.14-3.07-2.65-6.23-6-6l.03,.07Z"/>
        <path class="cls-5" d="M177.72,397.74c.73-6.15,1.49-12.29,2.3-18.42,.12-.85,.23-1.7,.34-2.55,0-.24,.11-.88,0,.23l.09-.66c.07-.49,.13-1,.2-1.47,.25-1.85,.51-3.7,.77-5.54,.55-3.85,1.12-7.69,1.7-11.53,2.39-15.52,5.1-31,8.95-46.26,1.68-7.01,3.85-13.9,6.5-20.61,.9-2.18-1-5-3.14-5.53-2.62-.6-4.57,.8-5.53,3.14-5.33,12.95-8.25,26.94-10.93,40.63-3.05,15.67-5.42,31.46-7.53,47.28-.95,7.09-1.84,14.19-2.69,21.29-.28,2.34,2.27,4.6,4.5,4.5,2.68-.12,4.2-2,4.5-4.5h-.03Z"/>
        <rect class="cls-24" x="518.57" y="452.58" width="77.95" height="6.72" rx="3.36" ry="3.36"/>
        <rect class="cls-20" x="524.96" y="459.31" width="77.95" height="6.72" rx="3.36" ry="3.36"/>
        <rect class="cls-13" x="518.36" y="466.05" width="77.95" height="6.72" rx="3.36" ry="3.36"/>
        <rect class="cls-24" x="528.8" y="472.78" width="77.95" height="6.72" rx="3.36" ry="3.36"/>
        <rect class="cls-20" x="535.18" y="479.52" width="77.95" height="6.72" rx="3.36" ry="3.36"/>
        <rect class="cls-13" x="528.58" y="486.26" width="77.95" height="6.72" rx="3.36" ry="3.36"/>
        <rect class="cls-24" x="509.82" y="492.99" width="77.95" height="6.72" rx="3.36" ry="3.36"/>
        <rect class="cls-20" x="516.22" y="499.72" width="77.95" height="6.72" rx="3.36" ry="3.36"/>
        <rect class="cls-13" x="509.61" y="506.47" width="77.95" height="6.72" rx="3.36" ry="3.36"/>
        <g class="cls-38">
          <path class="cls-15" d="M513,506.46h43.5v6.72h-43.5c-1.86,0-3.36-1.52-3.35-3.39,0-.88,.35-1.73,.97-2.35,.63-.63,1.49-.98,2.38-.98Z"/>
          <path class="cls-15" d="M509.82,496.35c0-.89,.36-1.75,1-2.38,.62-.64,1.48-1,2.37-1h43.31v6.72h-43.32c-1.85,0-3.34-1.49-3.36-3.34Z"/>
          <path class="cls-15" d="M519.58,499.72h36.92v6.72h-36.92c-1.86,0-3.36-1.5-3.36-3.36s1.5-3.36,3.36-3.36Z"/>
          <path class="cls-15" d="M518.57,455.93c0-.89,.37-1.75,1-2.38,.63-.64,1.48-1,2.38-1h34.55v6.72h-34.57c-1.85,0-3.35-1.49-3.36-3.34Z"/>
          <path class="cls-15" d="M518.36,469.4c0-.89,.36-1.74,1-2.37,.62-.64,1.48-1,2.37-1h34.77v6.72h-34.78c-1.85,0-3.35-1.5-3.36-3.35Z"/>
          <path class="cls-15" d="M528.32,459.3h28.18v6.69h-28.18c-1.85-.05-3.32-1.59-3.27-3.45,.02-.84,.36-1.65,.95-2.25,.61-.62,1.45-.98,2.32-.99Z"/>
          <path class="cls-15" d="M532,486.25h24.5v6.74h-24.5c-1.85,0-3.35-1.49-3.36-3.34v-.02c0-.89,.37-1.75,1-2.38,.62-.63,1.47-.99,2.36-1Z"/>
          <path class="cls-15" d="M532.16,472.78h24.34v6.72h-24.34c-1.86,0-3.36-1.5-3.36-3.36s1.5-3.36,3.36-3.36Z"/>
          <path class="cls-15" d="M538.55,479.51h18v6.72h-18c-1.86,0-3.36-1.5-3.36-3.36s1.5-3.36,3.36-3.36Z"/>
        </g>
        <path class="cls-5" d="M192.1,335.76c.84,17.15,.35,34.34-1.47,51.42-.07,.65-.15,1.3-.23,1.95,0,.29-.07,.58-.11,.86,0,.11-.16,1.24-.09,.7s0,.22,0,.26c0,.43-.12,.86-.18,1.29-.09,.64-.19,1.28-.29,1.92-.4,2.59-.86,5.17-1.38,7.75-.46,2.3,.66,5,3.15,5.53,2.24,.51,5-.67,5.53-3.14,3.7-18.31,4.61-37.18,4.44-55.83-.04-4.24-.15-8.48-.33-12.71,0-2.49-2.01-4.5-4.5-4.5s-4.5,2.01-4.5,4.5h-.04Z"/>
        <path class="cls-17" d="M344.7,520.48H188.56c-2.76,0-5-2.24-5-5s2.24-5,5-5h156.14c2.76,0,5,2.24,5,5s-2.24,5-5,5Z"/>
        <path class="cls-28" d="M131.75,519.99h-47.6c-2.49,0-4.5-2.01-4.5-4.5s2.01-4.5,4.5-4.5h47.6c2.49,0,4.5,2.01,4.5,4.5s-2.01,4.5-4.5,4.5Z"/>
        <polygon class="cls-25" points="582.39 82.16 551.92 84.26 556.77 110.89 564.63 133.67 591.41 118.59 582.39 82.16"/>
        <path class="cls-19" d="M592,99.12c2.22,9,1.89,17.08-.61,19.47-.32,.32-.71,.54-1.14,.66h-.11c-.48,.09-.98,.04-1.44-.15-3.28-1.22-7.18-8.07-9.35-16.88s-1.91-16.69,.43-19.29h0c.3-.34,.68-.61,1.11-.77l.2-.06c.42-.11,.87-.11,1.29,0,3.34,.98,7.41,7.98,9.62,17.02Z"/>
        <path class="cls-7" d="M588.5,99.99c1,4,.84,7.58-.27,8.64-.14,.15-.31,.25-.51,.29h0c-.22,.04-.44,.01-.65-.07-1.45-.54-3.18-3.59-4.15-7.49s-.84-7.41,.2-8.57h0c.13-.15,.3-.27,.49-.34h.09c.19-.05,.38-.05,.57,0,1.44,.42,3.24,3.54,4.23,7.54Z"/>
        <path class="cls-22" d="M606.39,195.44c-1.81-.03-3.59-.42-5.25-1.15-16-6.68-34.67-42-45.5-85.93s-10.7-83.78,.28-97.17h0l.08-.09c1.43-1.8,3.32-3.18,5.47-4,.34-.12,.69-.23,1-.32,2.15-.5,4.4-.38,6.49,.33,16.06,5.12,35.77,41.46,46.86,86.42,11,44.75,10.54,86-1.18,98.18-1.53,1.68-3.51,2.87-5.71,3.44-.2,.05-.4,.1-.61,.13-.64,.11-1.28,.16-1.93,.16ZM557.6,12.3l-.07,.08c-10.5,12.65-10.48,52.81,.05,95.5,10.53,42.69,29.16,78.21,44.34,84.56,1.91,.89,4.05,1.18,6.13,.84,.15-.02,.3-.06,.45-.1,1.83-.48,3.48-1.48,4.75-2.88,11.28-11.69,11.56-52.2,.68-96.32-10.93-44.33-30.08-80.07-45.53-84.99-1.74-.6-3.61-.7-5.4-.3-.28,.07-.56,.16-.84,.26-1.79,.69-3.37,1.84-4.56,3.35Z"/>
        <path class="cls-28" d="M599.77,519.99h-102.6c-2.49,0-4.5-2.01-4.5-4.5s2.01-4.5,4.5-4.5h102.6c2.49,0,4.5,2.01,4.5,4.5s-2.01,4.5-4.5,4.5Z"/>
      </g>
    </g>
  </g>
</svg>